<svg width="568" height="550" viewBox="0 0 568 550" fill="none" xmlns="http://www.w3.org/2000/svg">
<g filter="url(#filter0_d_6_55)">
<path d="M498.286 29H69.7143C49.9898 29 34 46.673 34 68.4737V489.526C34 511.327 49.9898 529 69.7143 529H498.286C518.01 529 534 511.327 534 489.526V68.4737C534 46.673 518.01 29 498.286 29Z" fill="#1D509C"/>
</g>
<path d="M498.286 29H69.7143C49.9898 29 34 46.673 34 68.4737V436.895C34 458.695 49.9898 476.368 69.7143 476.368H498.286C518.01 476.368 534 458.695 534 436.895V68.4737C534 46.673 518.01 29 498.286 29Z" fill="#3179E4"/>
<path d="M450.667 147.421H248.286C245.128 147.421 242.1 146.034 239.868 143.567C237.635 141.099 236.381 137.753 236.381 134.263C236.381 130.773 237.635 127.426 239.868 124.959C242.1 122.491 245.128 121.105 248.286 121.105H450.667C453.824 121.105 456.852 122.491 459.084 124.959C461.317 127.426 462.571 130.773 462.571 134.263C462.571 137.753 461.317 141.099 459.084 143.567C456.852 146.034 453.824 147.421 450.667 147.421Z" fill="#F9F6F6"/>
<path d="M379.238 213.21H248.286C245.128 213.21 242.1 211.824 239.868 209.356C237.635 206.889 236.381 203.542 236.381 200.052C236.381 196.562 237.635 193.216 239.868 190.748C242.1 188.281 245.128 186.894 248.286 186.894H379.238C382.395 186.894 385.423 188.281 387.656 190.748C389.888 193.216 391.143 196.562 391.143 200.052C391.143 203.542 389.888 206.889 387.656 209.356C385.423 211.824 382.395 213.21 379.238 213.21Z" fill="#F9F6F6"/>
<path d="M144.357 210.579C141.519 210.579 138.775 209.459 136.619 207.421L109.595 182.158C107.195 179.889 105.709 176.66 105.464 173.181C105.218 169.702 106.233 166.257 108.285 163.605C110.338 160.953 113.259 159.31 116.407 159.039C119.555 158.767 122.672 159.889 125.071 162.158L142.571 178.473L179.357 125.842C181.353 123.322 184.144 121.739 187.16 121.414C190.176 121.09 193.19 122.049 195.589 124.096C197.987 126.142 199.589 129.123 200.068 132.431C200.547 135.738 199.867 139.122 198.166 141.894L153.762 205.052C152.77 206.457 151.531 207.624 150.119 208.484C148.707 209.343 147.151 209.877 145.547 210.052L144.357 210.579Z" fill="#F9F6F6"/>
<path d="M450.667 305.315H248.286C245.128 305.315 242.1 303.929 239.868 301.462C237.635 298.994 236.381 295.647 236.381 292.158C236.381 288.668 237.635 285.321 239.868 282.854C242.1 280.386 245.128 279 248.286 279H450.667C453.824 279 456.852 280.386 459.084 282.854C461.317 285.321 462.571 288.668 462.571 292.158C462.571 295.647 461.317 298.994 459.084 301.462C456.852 303.929 453.824 305.315 450.667 305.315Z" fill="#F9F6F6"/>
<path d="M379.238 371.105H248.286C245.128 371.105 242.1 369.718 239.868 367.251C237.635 364.783 236.381 361.437 236.381 357.947C236.381 354.457 237.635 351.11 239.868 348.643C242.1 346.175 245.128 344.789 248.286 344.789H379.238C382.395 344.789 385.423 346.175 387.656 348.643C389.888 351.11 391.143 354.457 391.143 357.947C391.143 361.437 389.888 364.783 387.656 367.251C385.423 369.718 382.395 371.105 379.238 371.105Z" fill="#F9F6F6"/>
<path d="M144.357 368.473C141.519 368.473 138.775 367.353 136.619 365.315L109.595 340.052C107.195 337.784 105.709 334.555 105.464 331.075C105.218 327.596 106.233 324.152 108.285 321.499C110.338 318.847 113.259 317.205 116.407 316.933C119.555 316.662 122.672 317.784 125.071 320.052L142.571 336.368L179.357 283.736C180.269 282.25 181.447 280.985 182.818 280.021C184.189 279.056 185.724 278.412 187.329 278.128C188.933 277.844 190.574 277.926 192.149 278.37C193.723 278.813 195.2 279.608 196.486 280.706C197.772 281.804 198.842 283.181 199.628 284.753C200.414 286.325 200.901 288.058 201.059 289.846C201.216 291.634 201.041 293.438 200.543 295.148C200.046 296.858 199.237 298.438 198.166 299.789L153.762 362.947C152.77 364.351 151.531 365.519 150.119 366.378C148.707 367.238 147.151 367.771 145.547 367.947L144.357 368.473Z" fill="#F9F6F6"/>
<defs>
<filter id="filter0_d_6_55" x="0" y="0" width="568" height="568" filterUnits="userSpaceOnUse" color-interpolation-filters="sRGB">
<feFlood flood-opacity="0" result="BackgroundImageFix"/>
<feColorMatrix in="SourceAlpha" type="matrix" values="0 0 0 0 0 0 0 0 0 0 0 0 0 0 0 0 0 0 127 0" result="hardAlpha"/>
<feOffset dy="5"/>
<feGaussianBlur stdDeviation="17"/>
<feComposite in2="hardAlpha" operator="out"/>
<feColorMatrix type="matrix" values="0 0 0 0 0.113725 0 0 0 0 0.313726 0 0 0 0 0.611765 0 0 0 0.35 0"/>
<feBlend mode="normal" in2="BackgroundImageFix" result="effect1_dropShadow_6_55"/>
<feBlend mode="normal" in="SourceGraphic" in2="effect1_dropShadow_6_55" result="shape"/>
</filter>
</defs>
</svg>
