<svg width="518" height="518" viewBox="0 0 518 518" fill="none" xmlns="http://www.w3.org/2000/svg">
<g filter="url(#filter0_d_6_53)">
<path d="M451.857 29H66.1429C48.3908 29 34 44.9057 34 64.5263V443.474C34 463.094 48.3908 479 66.1429 479H451.857C469.609 479 484 463.094 484 443.474V64.5263C484 44.9057 469.609 29 451.857 29Z" fill="#E1814B"/>
</g>
<path d="M451.857 29H66.1429C48.3908 29 34 44.9057 34 64.5263V396.105C34 415.726 48.3908 431.632 66.1429 431.632H451.857C469.609 431.632 484 415.726 484 396.105V64.5263C484 44.9057 469.609 29 451.857 29Z" fill="#FBAB32"/>
<path d="M408.999 135.579H226.857C224.015 135.579 221.29 134.331 219.28 132.11C217.271 129.889 216.142 126.877 216.142 123.737C216.142 120.596 217.271 117.584 219.28 115.363C221.29 113.142 224.015 111.894 226.857 111.894H408.999C411.841 111.894 414.566 113.142 416.576 115.363C418.585 117.584 419.714 120.596 419.714 123.737C419.714 126.877 418.585 129.889 416.576 132.11C414.566 134.331 411.841 135.579 408.999 135.579Z" fill="#F9F6F6"/>
<path d="M344.714 194.789H226.857C224.015 194.789 221.29 193.541 219.28 191.321C217.271 189.1 216.142 186.088 216.142 182.947C216.142 179.806 217.271 176.794 219.28 174.573C221.29 172.352 224.015 171.105 226.857 171.105H344.714C347.555 171.105 350.281 172.352 352.29 174.573C354.299 176.794 355.428 179.806 355.428 182.947C355.428 186.088 354.299 189.1 352.29 191.321C350.281 193.541 347.555 194.789 344.714 194.789Z" fill="#F9F6F6"/>
<path d="M133.321 192.421C130.768 192.421 128.298 191.413 126.357 189.579L102.036 166.842C99.8759 164.8 98.5385 161.894 98.3174 158.763C98.0964 155.632 99.0099 152.531 100.857 150.144C102.704 147.757 105.333 146.279 108.166 146.035C111 145.791 113.804 146.8 115.964 148.842L131.714 163.526L164.821 116.158C166.618 113.89 169.129 112.465 171.844 112.173C174.558 111.881 177.271 112.744 179.43 114.586C181.589 116.428 183.03 119.111 183.461 122.087C183.893 125.064 183.28 128.11 181.75 130.605L141.786 187.447C140.893 188.711 139.778 189.762 138.507 190.535C137.236 191.309 135.836 191.789 134.393 191.947L133.321 192.421Z" fill="#F9F6F6"/>
<path d="M408.999 277.684H226.857C224.015 277.684 221.29 276.436 219.28 274.215C217.271 271.995 216.142 268.983 216.142 265.842C216.142 262.701 217.271 259.689 219.28 257.468C221.29 255.247 224.015 254 226.857 254H408.999C411.841 254 414.566 255.247 416.576 257.468C418.585 259.689 419.714 262.701 419.714 265.842C419.714 268.983 418.585 271.995 416.576 274.215C414.566 276.436 411.841 277.684 408.999 277.684Z" fill="#F9F6F6"/>
<path d="M344.714 336.894H226.857C224.015 336.894 221.29 335.647 219.28 333.426C217.271 331.205 216.142 328.193 216.142 325.052C216.142 321.911 217.271 318.899 219.28 316.679C221.29 314.458 224.015 313.21 226.857 313.21H344.714C347.555 313.21 350.281 314.458 352.29 316.679C354.299 318.899 355.428 321.911 355.428 325.052C355.428 328.193 354.299 331.205 352.29 333.426C350.281 335.647 347.555 336.894 344.714 336.894Z" fill="#F9F6F6"/>
<path d="M133.321 334.526C130.768 334.526 128.298 333.518 126.357 331.684L102.036 308.947C99.8759 306.905 98.5385 303.999 98.3174 300.868C98.0964 297.737 99.0099 294.636 100.857 292.249C102.704 289.863 105.333 288.384 108.166 288.14C111 287.896 113.804 288.905 115.964 290.947L131.714 305.631L164.821 258.263C165.642 256.925 166.702 255.787 167.936 254.918C169.17 254.05 170.552 253.471 171.996 253.215C173.44 252.96 174.916 253.034 176.334 253.433C177.751 253.832 179.08 254.547 180.237 255.535C181.395 256.523 182.357 257.763 183.065 259.178C183.773 260.592 184.211 262.152 184.353 263.761C184.495 265.37 184.337 266.994 183.889 268.533C183.441 270.072 182.713 271.494 181.75 272.71L141.786 329.552C140.893 330.816 139.778 331.867 138.507 332.641C137.236 333.414 135.836 333.894 134.393 334.052L133.321 334.526Z" fill="#F9F6F6"/>
<defs>
<filter id="filter0_d_6_53" x="0" y="0" width="518" height="518" filterUnits="userSpaceOnUse" color-interpolation-filters="sRGB">
<feFlood flood-opacity="0" result="BackgroundImageFix"/>
<feColorMatrix in="SourceAlpha" type="matrix" values="0 0 0 0 0 0 0 0 0 0 0 0 0 0 0 0 0 0 127 0" result="hardAlpha"/>
<feOffset dy="5"/>
<feGaussianBlur stdDeviation="17"/>
<feComposite in2="hardAlpha" operator="out"/>
<feColorMatrix type="matrix" values="0 0 0 0 0.882353 0 0 0 0 0.505882 0 0 0 0 0.294118 0 0 0 0.35 0"/>
<feBlend mode="normal" in2="BackgroundImageFix" result="effect1_dropShadow_6_53"/>
<feBlend mode="normal" in="SourceGraphic" in2="effect1_dropShadow_6_53" result="shape"/>
</filter>
</defs>
</svg>
