<svg width="620" height="595" viewBox="0 0 620 595" fill="none" xmlns="http://www.w3.org/2000/svg">
<g filter="url(#filter0_d_6_56)">
<path d="M88.7827 222.125L188.506 575.938L549.848 474.093C583.108 464.719 602.472 430.156 593.097 396.895L510.348 103.305C509.176 99.1478 504.856 96.7272 500.698 97.8989L94.1889 212.475C90.0316 213.647 87.611 217.967 88.7827 222.125Z" fill="#FEEFCD"/>
</g>
<path d="M131.829 201.866L94.1889 212.475C90.0316 213.647 87.611 217.967 88.7827 222.125L188.506 575.938L226.146 565.329L126.422 211.516C125.251 207.358 127.671 203.038 131.829 201.866Z" fill="#FDE8B4"/>
<path d="M465.543 432.847L119.375 530.415C114.764 531.715 112.425 536.804 114.369 541.181C126.788 569.151 158.188 584.484 188.505 575.939L549.847 474.093C518.832 482.835 486.684 466.588 474.884 437.385C473.4 433.711 469.358 431.772 465.543 432.847Z" fill="#FDE09B"/>
<path d="M295.118 204.598C293.192 205.141 291.058 204.949 289.174 203.894L197.501 152.535C193.732 150.424 192.389 145.658 194.501 141.89C196.612 138.121 201.378 136.778 205.146 138.889L296.819 190.248C300.588 192.359 301.931 197.125 299.819 200.893C298.765 202.777 297.045 204.055 295.118 204.598Z" fill="#C9BFCB"/>
<path d="M211.933 183.351C232.721 177.492 244.823 155.891 238.964 135.103C233.105 114.315 211.503 102.213 190.715 108.072C169.927 113.931 157.825 135.533 163.684 156.32C169.544 177.108 191.145 189.21 211.933 183.351Z" fill="#FFBB55"/>
<path d="M225.449 159.227C204.661 165.086 183.059 152.984 177.2 132.196C175.644 126.674 175.366 121.098 176.17 115.771C164.774 125.358 159.382 141.055 163.684 156.32C169.543 177.108 191.146 189.21 211.933 183.351C227.199 179.049 237.769 166.253 239.994 151.528C235.871 154.996 230.97 157.671 225.449 159.227Z" fill="#FF8616"/>
<path d="M236.813 286.04L191.645 298.77C187.488 299.942 185.067 304.263 186.239 308.42C187.411 312.577 191.732 314.998 195.889 313.826L210.945 309.583L225.797 362.278C226.969 366.436 231.29 368.856 235.447 367.684C239.604 366.513 242.025 362.192 240.853 358.035L226.001 305.339L241.057 301.095C245.214 299.924 247.635 295.603 246.463 291.446C245.291 287.288 240.97 284.868 236.813 286.04Z" fill="#6F5575"/>
<path d="M295.671 350.71C279.067 355.39 260.8 342.312 254.95 321.558C249.1 300.803 257.849 280.111 274.453 275.431C291.057 270.751 309.324 283.829 315.174 304.583C321.023 325.338 312.274 346.03 295.671 350.71ZM278.696 290.487C270.535 292.787 266.556 305.073 270.006 317.314C273.456 329.555 283.266 337.955 291.427 335.654C299.588 333.354 303.568 321.068 300.118 308.827C296.667 296.585 286.858 288.186 278.696 290.487Z" fill="#6F5575"/>
<path d="M461.286 304.031C444.682 308.711 426.415 295.633 420.565 274.878C414.715 254.124 423.464 233.431 440.068 228.752C456.672 224.072 474.939 237.15 480.788 257.904C486.638 278.659 477.889 299.351 461.286 304.031ZM444.311 243.808C436.15 246.108 432.17 258.394 435.621 270.635C439.071 282.876 448.881 291.276 457.042 288.975C465.203 286.675 469.183 274.389 465.733 262.148C462.282 249.906 452.473 241.507 444.311 243.808Z" fill="#6F5575"/>
<path d="M363.422 331.614C359.265 332.786 354.944 330.365 353.772 326.208L334.676 258.456C334.053 256.243 334.435 253.868 335.72 251.962C337.005 250.056 339.06 248.811 341.349 248.561C343.548 248.319 395.341 243.048 405.509 279.122C413.901 308.896 381.648 326.477 363.422 331.614ZM352.447 263.843L366.543 313.855C377.136 309.368 394.936 299.271 390.453 283.366C385.875 267.121 364.912 264.14 352.447 263.843Z" fill="#6F5575"/>
<path d="M441.783 350.158L291.224 392.594C287.066 393.765 282.746 391.345 281.574 387.187C280.402 383.03 282.823 378.709 286.98 377.538L437.539 335.102C441.696 333.93 446.017 336.351 447.189 340.508C448.361 344.666 445.94 348.986 441.783 350.158Z" fill="#F79235"/>
<path d="M414.752 398.407L316.888 425.99C312.731 427.162 308.41 424.741 307.239 420.584C306.067 416.426 308.487 412.106 312.645 410.934L410.508 383.351C414.665 382.179 418.986 384.6 420.158 388.757C421.33 392.914 418.909 397.235 414.752 398.407Z" fill="#F79235"/>
<defs>
<filter id="filter0_d_6_56" x="84.4875" y="89.6037" width="534.972" height="506.335" filterUnits="userSpaceOnUse" color-interpolation-filters="sRGB">
<feFlood flood-opacity="0" result="BackgroundImageFix"/>
<feColorMatrix in="SourceAlpha" type="matrix" values="0 0 0 0 0 0 0 0 0 0 0 0 0 0 0 0 0 0 127 0" result="hardAlpha"/>
<feOffset dx="10" dy="6"/>
<feGaussianBlur stdDeviation="7"/>
<feComposite in2="hardAlpha" operator="out"/>
<feColorMatrix type="matrix" values="0 0 0 0 0.027451 0 0 0 0 0.184314 0 0 0 0 0.168627 0 0 0 0.5 0"/>
<feBlend mode="normal" in2="BackgroundImageFix" result="effect1_dropShadow_6_56"/>
<feBlend mode="normal" in="SourceGraphic" in2="effect1_dropShadow_6_56" result="shape"/>
</filter>
</defs>
</svg>
